HIERARCHY
ROOT RootJoint
{
    OFFSET   0.000000   0.000000   0.000000
    CHANNELS 6 Xposition Yposition Zposition Xrotation Yrotation Zrotation
    JOINT pelvis_lowerback
    {
        OFFSET   0.000000   0.093605   0.000000
        CHANNELS 3 Xrotation Yrotation Zrotation
        JOINT lowerback_torso
        {
            OFFSET   0.000000   0.100000   0.000000
            CHANNELS 3 Xrotation Yrotation Zrotation
            JOINT torso_head
            {
                OFFSET   0.000000   0.282350   0.000000
                CHANNELS 3 Xrotation Yrotation Zrotation
                End Site
                {
                    OFFSET   0.000000   0.192650   0.000000
                }
            }
            JOINT rTorso_Clavicle
            {
                OFFSET  -0.001000   0.157500   0.000000
                CHANNELS 3 Xrotation Yrotation Zrotation
                JOINT rShoulder
                {
                    OFFSET  -0.117647   0.000000   0.000000
                    CHANNELS 3 Xrotation Yrotation Zrotation
                    JOINT rElbow
                    {
                        OFFSET  -0.245000   0.000000   0.000000
                        CHANNELS 3 Xrotation Yrotation Zrotation
                        JOINT rWrist
                        {
                            OFFSET  -0.240000   0.000000   0.000000
                            CHANNELS 3 Xrotation Yrotation Zrotation
                            End Site
                            {
                                OFFSET  -0.116353  -0.002500   0.000000
                            }
                        }
                    }
                }
            }
            JOINT lTorso_Clavicle
            {
                OFFSET   0.001000   0.157500   0.000000
                CHANNELS 3 Xrotation Yrotation Zrotation
                JOINT lShoulder
                {
                    OFFSET   0.117647   0.000000   0.000000
                    CHANNELS 3 Xrotation Yrotation Zrotation
                    JOINT lElbow
                    {
                        OFFSET   0.245000   0.000000   0.000000
                        CHANNELS 3 Xrotation Yrotation Zrotation
                        JOINT lWrist
                        {
                            OFFSET   0.240000   0.000000   0.000000
                            CHANNELS 3 Xrotation Yrotation Zrotation
                            End Site
                            {
                                OFFSET   0.116353  -0.002500   0.000000
                            }
                        }
                    }
                }
            }
        }
    }
    JOINT rHip
    {
        OFFSET  -0.100000  -0.051395   0.000000
        CHANNELS 3 Xrotation Yrotation Zrotation
        JOINT rKnee
        {
            OFFSET   0.000000  -0.410000   0.000000
            CHANNELS 3 Xrotation Yrotation Zrotation
            JOINT rAnkle
            {
                OFFSET   0.000000  -0.390000   0.000000
                CHANNELS 3 Xrotation Yrotation Zrotation
                JOINT rToeJoint
                {
                    OFFSET   0.000000  -0.050000   0.130000
                    CHANNELS 3 Xrotation Yrotation Zrotation
                    End Site
                    {
                        OFFSET  -0.010000   0.002000   0.060000
                    }
                }
            }
        }
    }
    JOINT lHip
    {
        OFFSET   0.100000  -0.051395   0.000000
        CHANNELS 3 Xrotation Yrotation Zrotation
        JOINT lKnee
        {
            OFFSET   0.000000  -0.410000   0.000000
            CHANNELS 3 Xrotation Yrotation Zrotation
            JOINT lAnkle
            {
                OFFSET   0.000000  -0.390000   0.000000
                CHANNELS 3 Xrotation Yrotation Zrotation
                JOINT lToeJoint
                {
                    OFFSET   0.000000  -0.050000   0.130000
                    CHANNELS 3 Xrotation Yrotation Zrotation
                    End Site
                    {
                        OFFSET   0.010000   0.002000   0.060000
                    }
                }
            }
        }
    }
}
MOTION
Frames: 14
Frame Time:   0.008333
 -2.376719   0.925631   3.975860   0.000000   0.000000   0.000000   0.000000   0.000000   0.000000   0.000000   0.000000   0.000000   0.000000   0.000000   0.000000   0.000000   0.000000   0.000000   0.000000   0.000000   0.000000   0.000000   0.000000   0.000000   0.000000   0.000000   0.000000   0.000000   0.000000   0.000000   0.000000   0.000000   0.000000   0.000000   0.000000   0.000000   0.000000   0.000000   0.000000   0.000000   0.000000   0.000000   0.000000   0.000000   0.000000   0.000000   0.000000   0.000000   0.000000   0.000000   0.000000   0.000000   0.000000   0.000000   0.000000   0.000000   0.000000   0.000000   0.000000   0.000000   0.000000   0.000000   0.000000
 -2.376907   0.925493   3.974584   0.789021   0.212426   0.456723  -0.828554  -0.172902  -0.745714   0.042499  -0.149143   0.039167  -0.290087  -1.313557   0.497917   0.132532  -0.341136  -0.699126   0.290668  -0.332432   2.700655   0.055853   3.616590  -0.014634  -0.210225  -1.415701  -1.857238   0.157273   0.389014   0.469990   0.999139   0.034883  -1.977499   0.054692  -3.494801   0.036961   0.114723   1.865034   2.039665  -1.341195  -0.315905  -0.507238  -0.000000  -0.000000   0.000000  -0.340529  -0.607842  -0.125206   1.590256   0.002163  -0.010066  -1.553383   0.288757  -0.425885   2.701679  -0.000510   0.011542  -1.618404   0.541864  -0.369990  -0.083587  -0.000239  -0.000752
 -2.377288   0.925309   3.973048   1.468794   0.317499   0.968270  -1.574578  -0.356145  -1.560140   0.088363  -0.343270   0.008895  -0.560027  -2.592782   0.973355   0.258426  -0.517130  -0.901110   0.565253  -0.472598   5.616981   0.125063   7.367654  -0.025138  -0.396519  -1.829262  -3.064413   0.316389   0.598677   0.457764   1.923002  -0.129860  -4.197735   0.130228  -7.122743   0.066494   0.253423   2.809256   3.577763  -2.924891  -0.608362  -1.077467  -0.000000  -0.000000   0.000000  -0.667073  -1.182903  -0.249902   3.052984   0.003008  -0.018467  -2.743047   0.609637  -0.818150   5.564144  -0.002203   0.019244  -3.114523   1.067779  -0.699296  -0.186886  -0.000367  -0.001439
 -2.377908   0.925776   3.972066   2.277823   0.644854   1.330267  -2.519090  -0.675323  -2.274645   0.034583  -0.665563  -0.017411  -0.805748  -3.795792   1.410372   0.379820  -0.646294  -0.716127   0.826258  -0.550168   8.602453   0.195675  11.145671  -0.026947  -0.564500  -1.901384  -3.721272   0.472433   0.643475   0.037445   2.768579  -0.439023  -6.555949   0.213306 -10.803298   0.084971   0.393100   3.297682   4.549623  -3.978264  -0.914226  -1.462361   0.253990  -0.000011  -0.000050  -0.427589  -1.731858  -0.339577   4.269764   0.002643  -0.020931  -3.741172   0.899621  -0.998235   8.307629  -0.004088   0.029763  -4.500576   1.565315  -0.995969  -0.252097  -0.000338  -0.001777
 -2.378578   0.926454   3.970843   3.258786   0.828118   1.686255  -3.510694  -0.948893  -3.004796  -0.132915  -0.986395  -0.073015  -1.065995  -4.919345   1.816650   0.494483  -0.699787  -0.295660   1.072156  -0.555139  11.576727   0.254426  14.778478  -0.026855  -0.726172  -1.787257  -3.925354   0.624151   0.588080  -0.614770   3.539421  -0.838529  -8.949596   0.290800 -14.431495   0.100113   0.523925   3.535743   5.036009  -5.004058  -1.177104  -1.836839   0.077200   0.000001   0.000169  -0.415851  -2.237254  -0.431011   5.520739   0.001958  -0.023856  -4.608873   1.191726  -1.134922  10.897774  -0.005910   0.034323  -5.791153   2.040557  -1.258483  -0.309582  -0.000264  -0.001895
 -2.379241   0.927159   3.969222   4.348966   0.846012   2.036435  -4.466944  -1.192161  -3.731857  -0.338693  -1.296162  -0.156995  -1.326599  -5.969033   2.193277   0.600485  -0.679517   0.262186   1.300094  -0.491583  14.475227   0.296770  18.189513  -0.027745  -0.880338  -1.554152  -3.833221   0.770586   0.450386  -1.406389   4.238256  -1.313159 -11.312638   0.353262 -17.844363   0.114898   0.653431   3.578868   5.192100  -6.102254  -1.412980  -2.197641  -0.267294   0.000004   0.001003  -0.450161  -2.707420  -0.518431   6.644668   0.001034  -0.026621  -5.313008   1.467125  -1.238536  13.348047  -0.007985   0.033748  -6.993758   2.490098  -1.491349  -0.363382  -0.000168  -0.001866
 -2.379854   0.927739   3.967076   5.453886   0.679724   2.385274  -5.291835  -1.410880  -4.447845  -0.515204  -1.590113  -0.263012  -1.576675  -6.949572   2.543462   0.693367  -0.590873   0.887788   1.505893  -0.368325  17.257379   0.323792  21.389287  -0.030838  -1.028476  -1.252971  -3.563187   0.908132   0.243117  -2.265577   4.867276  -1.844275 -13.598729   0.400808 -21.046943   0.131824   0.778704   3.517864   5.142134  -7.478628  -1.614470  -2.545026  -0.213837   0.000007   0.000586  -0.565567  -3.146631  -0.600124   7.653817   0.000064  -0.029300  -5.799343   1.723276  -1.321175  15.685157  -0.010488   0.029187  -8.114103   2.914380  -1.697855  -0.412681  -0.000063  -0.001722
 -2.380980   0.927266   3.964250   6.220145  -0.021625   1.998517  -5.404806  -1.553204  -4.269887  -0.743123  -1.981882  -0.321659  -1.878037  -8.039988   2.981102   0.508149  -0.315671   1.203359   1.686316   0.069000  19.683016   0.338522  24.916724  -0.033901  -1.122003  -1.323774  -2.941179   1.149627   0.493299  -2.834338   5.432756  -2.426663 -15.863655   0.444778 -24.523550   0.163648   0.786965   3.347003   4.726508  -9.560592  -2.430816  -1.886213   3.036311  -0.007275  -0.042849  -2.103669  -4.256799  -0.984504   7.784331  -0.000127  -0.026458  -5.428260   2.331652  -0.502754  16.221516  -0.010109   0.023654  -8.521895   3.916982  -1.865748   0.299665  -0.002007   0.005039
 -2.382146   0.925760   3.961242   6.907490  -0.629304   1.507384  -5.416404  -1.794314  -4.026969  -0.861109  -2.401471  -0.308978  -2.119280  -9.080951   3.414987   0.307687   0.008734   1.357089   1.807391   0.548844  21.846435   0.335600  28.254829  -0.037428  -1.191185  -1.151528  -2.448824   1.366223   0.688343  -3.256692   5.931344  -3.024699 -17.903787   0.467999 -27.798319   0.191266   0.822058   2.971510   4.341353 -11.543267  -3.295661  -1.113331   6.636121  -0.019542  -0.077826  -3.530607  -5.303856  -1.375569   7.920243  -0.000262  -0.024084  -5.052936   2.886838   0.408740  16.496767  -0.008988   0.019168  -8.905615   4.863739  -2.008232   0.996583  -0.003520   0.010208
 -2.383092   0.923484   3.958045   7.542101  -1.271859   1.016981  -5.340277  -2.020880  -3.769167  -0.919541  -2.792374  -0.281433  -2.324463 -10.054986   3.823624   0.100824   0.358395   1.416345   1.882718   1.033029  23.798201   0.322418  31.386786  -0.040892  -1.247075  -0.872023  -2.117073   1.549804   0.827469  -3.586189   6.363969  -3.625603 -19.751029   0.477203 -30.868303   0.213512   0.868067   2.530528   4.076040 -13.365809  -4.128354  -0.358967  10.217261  -0.032745  -0.102799  -4.863234  -6.270503  -1.765817   8.077975  -0.000368  -0.022454  -4.854406   3.292835   1.063130  16.430106  -0.007124   0.015408  -9.516632   5.544459  -2.237411  -1.451384  -0.004205  -0.002502
 -2.384080   0.920642   3.954646   8.074191  -1.830912   0.518029  -5.147835  -2.277716  -3.538545  -0.909114  -3.185927  -0.245828  -2.499063 -10.966049   4.207186  -0.103770   0.711367   1.434388   1.925270   1.503760  25.588230   0.303974  34.318111  -0.044733  -1.296937  -0.553969  -1.893895   1.696701   0.908363  -3.835279   6.733719  -4.225993 -21.423059   0.477234 -33.743868   0.230425   0.919769   2.061969   3.923045 -15.054984  -4.834840   0.528352  13.335139  -0.046831  -0.108601  -6.284181  -7.014743  -2.082330   5.749729   0.006602   0.018526  -4.877264   3.694680   1.584918  16.225415  -0.005708   0.012525 -10.149906   6.222780  -2.426318  -4.368328  -0.007998  -0.016101
 -2.385037   0.917294   3.951291   8.457704  -2.377373   0.049235  -4.857558  -2.519994  -3.345933  -0.825701  -3.554292  -0.227274  -2.642062 -11.816056   4.560049  -0.302258   1.060468   1.423086   1.943059   1.954998  27.237427   0.282434  37.058945  -0.047540  -1.342241  -0.224491  -1.732712   1.818027   0.960633  -4.030540   7.053633  -4.807357 -22.951593   0.470601 -36.432994   0.241564   0.973503   1.590942   3.838594 -16.605826  -5.602958   1.365419  16.248856  -0.058217  -0.110520  -7.603631  -7.809409  -2.452169   3.948989   0.008177   0.044240  -5.062663   4.145559   2.054816  15.896018  -0.004709   0.010191 -10.807180   6.964428  -2.554883  -7.783395  -0.011074  -0.033186
 -2.385962   0.913588   3.948274   8.722125  -2.979873  -0.363001  -4.548566  -2.718049  -3.204647  -0.703524  -3.874321  -0.235677  -2.757739 -12.608509   4.883639  -0.488732   1.392383   1.401359   1.945685   2.378950  28.766872   0.258752  39.618897  -0.047447  -1.383621   0.101510  -1.601465   1.930928   1.021685  -4.200748   7.340953  -5.346853 -24.366093   0.458570 -38.939980   0.246321   1.025151   1.150981   3.781128 -18.029992  -6.353783   2.124920  18.984373  -0.066717  -0.109989  -8.830295  -8.556171  -2.825392   2.504469   0.007649   0.058586  -5.255593   4.583364   2.481537  15.715014  -0.003809   0.008351 -11.509368   7.680532  -2.660453 -11.578612  -0.011638  -0.046437
 -2.386939   0.912239   3.946707   8.413026  -3.266987  -0.272403  -3.820541  -3.085225  -3.519986  -0.700272  -4.212412  -0.449189  -2.948367 -13.148280   5.125708  -0.577945   1.539382   1.682547   2.066804   2.752220  30.093001   0.240935  42.364456  -0.044970  -1.312702   0.365733  -1.285692   2.250217   1.242757  -4.308656   7.608191  -5.877945 -25.662944   0.445659 -41.376853   0.246787   1.125921   0.756869   3.557693 -18.188213  -6.392707   2.389905  20.616872  -0.062260  -0.089011 -10.367494  -8.767916  -3.286772   2.894734   0.006452   0.045151  -6.013430   4.869513   2.483879  17.798089  -0.002453   0.007372 -12.145294   8.315408  -2.857042 -12.059713  -0.008975  -0.040201
